STARTFONT 2.1
COMMENT screen font, 9 x 15 pixels
FONT -misc-fixed-medium-r-normal-sans-15-140-75-75-c-90-iso8859-2
SIZE 15 75 75
FONTBOUNDINGBOX 9 15 0 -2
STARTPROPERTIES 25
FONT_ASCENT 13
FONT_DESCENT 2
DEFAULT_CHAR 0
FONTNAME_REGISTRY ""
FOUNDRY "Misc"
FAMILY_NAME "Fixed"
WEIGHT_NAME "Medium"
SLANT "R"
SETWIDTH_NAME "Normal"
ADD_STYLE_NAME "Sans"
PIXEL_SIZE 15
POINT_SIZE 140
RESOLUTION_X 75
RESOLUTION_Y 75
SPACING "C"
AVERAGE_WIDTH 90
CHARSET_REGISTRY "ISO8859"
CHARSET_ENCODING "2"
COPYRIGHT "Libor Skarvada, libor@informatics.muni.cz"
FONT "-Misc-Fixed-Medium-R-Normal-Sans-15-140-75-75-C-90-ISO8859-2"
WEIGHT 10
RESOLUTION 104
CAP_HEIGHT 10
X_HEIGHT 7
QUAD_WIDTH 9
ENDPROPERTIES
CHARS 224
STARTCHAR 0
ENCODING 0
SWIDTH 617 0
DWIDTH 9 0
BBX 1 1 0 -2
BITMAP
00
ENDCHAR
STARTCHAR 1
ENCODING 1
SWIDTH 617 0
DWIDTH 9 0
BBX 7 7 1 0
BITMAP
10
38
7c
fe
7c
38
10
ENDCHAR
STARTCHAR 2
ENCODING 2
SWIDTH 617 0
DWIDTH 9 0
BBX 8 13 0 -2
BITMAP
aa
55
aa
55
aa
55
aa
55
aa
55
aa
55
aa
ENDCHAR
STARTCHAR 3
ENCODING 3
SWIDTH 617 0
DWIDTH 9 0
BBX 7 9 1 -2
BITMAP
88
88
f8
88
88
3e
08
08
08
ENDCHAR
STARTCHAR 4
ENCODING 4
SWIDTH 617 0
DWIDTH 9 0
BBX 7 9 1 -2
BITMAP
f0
80
e0
80
9e
10
1c
10
10
ENDCHAR
STARTCHAR 5
ENCODING 5
SWIDTH 617 0
DWIDTH 9 0
BBX 7 9 1 -2
BITMAP
78
80
80
78
3c
22
3c
22
22
ENDCHAR
STARTCHAR 6
ENCODING 6
SWIDTH 617 0
DWIDTH 9 0
BBX 7 9 1 -2
BITMAP
80
80
80
f8
3e
20
3c
20
20
ENDCHAR
STARTCHAR 7
ENCODING 7
SWIDTH 617 0
DWIDTH 9 0
BBX 5 4 2 6
BITMAP
70
88
88
70
ENDCHAR
STARTCHAR 8
ENCODING 8
SWIDTH 617 0
DWIDTH 9 0
BBX 7 6 1 0
BITMAP
10
10
fe
10
10
fe
ENDCHAR
STARTCHAR 9
ENCODING 9
SWIDTH 617 0
DWIDTH 9 0
BBX 7 9 1 -2
BITMAP
88
c8
a8
98
88
20
20
20
3e
ENDCHAR
STARTCHAR 10
ENCODING 10
SWIDTH 617 0
DWIDTH 9 0
BBX 7 9 1 -2
BITMAP
88
88
50
20
3e
08
08
08
08
ENDCHAR
STARTCHAR 11
ENCODING 11
SWIDTH 617 0
DWIDTH 9 0
BBX 5 8 0 5
BITMAP
08
08
08
08
08
08
08
f8
ENDCHAR
STARTCHAR 12
ENCODING 12
SWIDTH 617 0
DWIDTH 9 0
BBX 5 8 0 -2
BITMAP
f8
08
08
08
08
08
08
08
ENDCHAR
STARTCHAR 13
ENCODING 13
SWIDTH 617 0
DWIDTH 9 0
BBX 5 8 4 -2
BITMAP
f8
80
80
80
80
80
80
80
ENDCHAR
STARTCHAR 14
ENCODING 14
SWIDTH 617 0
DWIDTH 9 0
BBX 5 8 4 5
BITMAP
80
80
80
80
80
80
80
f8
ENDCHAR
STARTCHAR 15
ENCODING 15
SWIDTH 617 0
DWIDTH 9 0
BBX 9 15 0 -2
BITMAP
0800
0800
0800
0800
0800
0800
0800
ff80
0800
0800
0800
0800
0800
0800
0800
ENDCHAR
STARTCHAR 16
ENCODING 16
SWIDTH 617 0
DWIDTH 9 0
BBX 9 1 0 9
BITMAP
ff80
ENDCHAR
STARTCHAR 17
ENCODING 17
SWIDTH 617 0
DWIDTH 9 0
BBX 9 1 0 7
BITMAP
ff80
ENDCHAR
STARTCHAR 18
ENCODING 18
SWIDTH 617 0
DWIDTH 9 0
BBX 9 1 0 5
BITMAP
ff80
ENDCHAR
STARTCHAR 19
ENCODING 19
SWIDTH 617 0
DWIDTH 9 0
BBX 9 1 0 3
BITMAP
ff80
ENDCHAR
STARTCHAR 20
ENCODING 20
SWIDTH 617 0
DWIDTH 9 0
BBX 9 1 0 1
BITMAP
ff80
ENDCHAR
STARTCHAR 21
ENCODING 21
SWIDTH 617 0
DWIDTH 9 0
BBX 5 15 4 -2
BITMAP
80
80
80
80
80
80
80
f8
80
80
80
80
80
80
80
ENDCHAR
STARTCHAR 22
ENCODING 22
SWIDTH 617 0
DWIDTH 9 0
BBX 5 15 0 -2
BITMAP
08
08
08
08
08
08
08
f8
08
08
08
08
08
08
08
ENDCHAR
STARTCHAR 23
ENCODING 23
SWIDTH 617 0
DWIDTH 9 0
BBX 9 8 0 5
BITMAP
0800
0800
0800
0800
0800
0800
0800
ff80
ENDCHAR
STARTCHAR 24
ENCODING 24
SWIDTH 617 0
DWIDTH 9 0
BBX 9 8 0 -2
BITMAP
ff80
0800
0800
0800
0800
0800
0800
0800
ENDCHAR
STARTCHAR 25
ENCODING 25
SWIDTH 617 0
DWIDTH 9 0
BBX 1 15 4 -2
BITMAP
80
80
80
80
80
80
80
80
80
80
80
80
80
80
80
ENDCHAR
STARTCHAR 26
ENCODING 26
SWIDTH 617 0
DWIDTH 9 0
BBX 7 8 1 -1
BITMAP
02
08
20
80
20
08
02
fe
ENDCHAR
STARTCHAR 27
ENCODING 27
SWIDTH 617 0
DWIDTH 9 0
BBX 7 8 1 -1
BITMAP
80
20
08
02
08
20
80
fe
ENDCHAR
STARTCHAR 28
ENCODING 28
SWIDTH 617 0
DWIDTH 9 0
BBX 7 7 1 0
BITMAP
fe
24
24
24
24
24
44
ENDCHAR
STARTCHAR 29
ENCODING 29
SWIDTH 617 0
DWIDTH 9 0
BBX 7 7 1 0
BITMAP
02
04
fe
10
fe
40
80
ENDCHAR
STARTCHAR 30
ENCODING 30
SWIDTH 617 0
DWIDTH 9 0
BBX 7 10 1 0
BITMAP
1c
22
20
20
f8
20
20
60
a2
5c
ENDCHAR
STARTCHAR 31
ENCODING 31
SWIDTH 617 0
DWIDTH 9 0
BBX 1 1 4 5
BITMAP
80
ENDCHAR
STARTCHAR 32
ENCODING 32
SWIDTH 617 0
DWIDTH 9 0
BBX 1 1 0 -2
BITMAP
00
ENDCHAR
STARTCHAR 33
ENCODING 33
SWIDTH 617 0
DWIDTH 9 0
BBX 1 10 4 0
BITMAP
80
80
80
80
80
80
80
80
00
80
ENDCHAR
STARTCHAR 34
ENCODING 34
SWIDTH 617 0
DWIDTH 9 0
BBX 4 3 3 7
BITMAP
90
90
90
ENDCHAR
STARTCHAR 35
ENCODING 35
SWIDTH 617 0
DWIDTH 9 0
BBX 6 8 1 1
BITMAP
48
48
fc
48
48
fc
48
48
ENDCHAR
STARTCHAR 36
ENCODING 36
SWIDTH 617 0
DWIDTH 9 0
BBX 7 9 1 0
BITMAP
10
7c
90
90
7c
12
12
7c
10
ENDCHAR
STARTCHAR 37
ENCODING 37
SWIDTH 617 0
DWIDTH 9 0
BBX 7 10 1 0
BITMAP
42
a4
a4
48
10
10
24
4a
4a
84
ENDCHAR
STARTCHAR 38
ENCODING 38
SWIDTH 617 0
DWIDTH 9 0
BBX 7 10 1 0
BITMAP
70
88
88
88
70
88
8a
84
8c
72
ENDCHAR
STARTCHAR 39
ENCODING 39
SWIDTH 617 0
DWIDTH 9 0
BBX 4 3 3 7
BITMAP
70
60
80
ENDCHAR
STARTCHAR 40
ENCODING 40
SWIDTH 617 0
DWIDTH 9 0
BBX 3 10 3 0
BITMAP
20
40
40
80
80
80
80
40
40
20
ENDCHAR
STARTCHAR 41
ENCODING 41
SWIDTH 617 0
DWIDTH 9 0
BBX 3 10 3 0
BITMAP
80
40
40
20
20
20
20
40
40
80
ENDCHAR
STARTCHAR 42
ENCODING 42
SWIDTH 617 0
DWIDTH 9 0
BBX 7 5 1 2
BITMAP
44
28
fe
28
44
ENDCHAR
STARTCHAR 43
ENCODING 43
SWIDTH 617 0
DWIDTH 9 0
BBX 7 7 1 1
BITMAP
10
10
10
fe
10
10
10
ENDCHAR
STARTCHAR 44
ENCODING 44
SWIDTH 617 0
DWIDTH 9 0
BBX 4 3 2 -1
BITMAP
70
60
80
ENDCHAR
STARTCHAR 45
ENCODING 45
SWIDTH 617 0
DWIDTH 9 0
BBX 7 1 1 4
BITMAP
fe
ENDCHAR
STARTCHAR 46
ENCODING 46
SWIDTH 617 0
DWIDTH 9 0
BBX 3 3 3 -1
BITMAP
40
e0
40
ENDCHAR
STARTCHAR 47
ENCODING 47
SWIDTH 617 0
DWIDTH 9 0
BBX 7 10 1 0
BITMAP
02
04
04
08
10
10
20
40
40
80
ENDCHAR
STARTCHAR 48
ENCODING 48
SWIDTH 617 0
DWIDTH 9 0
BBX 7 10 1 0
BITMAP
38
44
82
82
82
82
82
82
44
38
ENDCHAR
STARTCHAR 49
ENCODING 49
SWIDTH 617 0
DWIDTH 9 0
BBX 5 10 2 0
BITMAP
20
60
a0
20
20
20
20
20
20
f8
ENDCHAR
STARTCHAR 50
ENCODING 50
SWIDTH 617 0
DWIDTH 9 0
BBX 7 10 1 0
BITMAP
7c
82
82
02
04
08
30
40
80
fe
ENDCHAR
STARTCHAR 51
ENCODING 51
SWIDTH 617 0
DWIDTH 9 0
BBX 7 10 1 0
BITMAP
7c
82
02
04
18
04
02
02
82
7c
ENDCHAR
STARTCHAR 52
ENCODING 52
SWIDTH 617 0
DWIDTH 9 0
BBX 7 10 1 0
BITMAP
04
0c
14
24
44
84
fe
04
04
04
ENDCHAR
STARTCHAR 53
ENCODING 53
SWIDTH 617 0
DWIDTH 9 0
BBX 7 10 1 0
BITMAP
fe
80
80
bc
c2
02
02
02
82
7c
ENDCHAR
STARTCHAR 54
ENCODING 54
SWIDTH 617 0
DWIDTH 9 0
BBX 7 10 1 0
BITMAP
3c
40
80
80
bc
c2
82
82
82
7c
ENDCHAR
STARTCHAR 55
ENCODING 55
SWIDTH 617 0
DWIDTH 9 0
BBX 7 10 1 0
BITMAP
fe
02
02
04
08
10
20
20
40
40
ENDCHAR
STARTCHAR 56
ENCODING 56
SWIDTH 617 0
DWIDTH 9 0
BBX 7 10 1 0
BITMAP
7c
82
82
82
7c
82
82
82
82
7c
ENDCHAR
STARTCHAR 57
ENCODING 57
SWIDTH 617 0
DWIDTH 9 0
BBX 7 10 1 0
BITMAP
7c
82
82
82
86
7a
02
02
04
78
ENDCHAR
STARTCHAR 58
ENCODING 58
SWIDTH 617 0
DWIDTH 9 0
BBX 3 8 3 -1
BITMAP
40
e0
40
00
00
40
e0
40
ENDCHAR
STARTCHAR 59
ENCODING 59
SWIDTH 617 0
DWIDTH 9 0
BBX 4 8 2 -1
BITMAP
20
70
20
00
00
70
60
80
ENDCHAR
STARTCHAR 60
ENCODING 60
SWIDTH 617 0
DWIDTH 9 0
BBX 5 10 2 0
BITMAP
08
10
20
40
80
80
40
20
10
08
ENDCHAR
STARTCHAR 61
ENCODING 61
SWIDTH 617 0
DWIDTH 9 0
BBX 7 4 1 2
BITMAP
fe
00
00
fe
ENDCHAR
STARTCHAR 62
ENCODING 62
SWIDTH 617 0
DWIDTH 9 0
BBX 5 10 2 0
BITMAP
80
40
20
10
08
08
10
20
40
80
ENDCHAR
STARTCHAR 63
ENCODING 63
SWIDTH 617 0
DWIDTH 9 0
BBX 7 10 1 0
BITMAP
7c
82
82
02
04
08
10
10
00
10
ENDCHAR
STARTCHAR 64
ENCODING 64
SWIDTH 617 0
DWIDTH 9 0
BBX 7 10 1 0
BITMAP
7c
82
82
9e
a2
a6
9a
80
80
7c
ENDCHAR
STARTCHAR 65
ENCODING 65
SWIDTH 617 0
DWIDTH 9 0
BBX 7 10 1 0
BITMAP
10
28
44
82
82
82
fe
82
82
82
ENDCHAR
STARTCHAR 66
ENCODING 66
SWIDTH 617 0
DWIDTH 9 0
BBX 7 10 1 0
BITMAP
fc
42
42
42
7c
42
42
42
42
fc
ENDCHAR
STARTCHAR 67
ENCODING 67
SWIDTH 617 0
DWIDTH 9 0
BBX 7 10 1 0
BITMAP
7c
82
80
80
80
80
80
80
82
7c
ENDCHAR
STARTCHAR 68
ENCODING 68
SWIDTH 617 0
DWIDTH 9 0
BBX 7 10 1 0
BITMAP
fc
42
42
42
42
42
42
42
42
fc
ENDCHAR
STARTCHAR 69
ENCODING 69
SWIDTH 617 0
DWIDTH 9 0
BBX 7 10 1 0
BITMAP
fe
40
40
40
78
40
40
40
40
fe
ENDCHAR
STARTCHAR 70
ENCODING 70
SWIDTH 617 0
DWIDTH 9 0
BBX 7 10 1 0
BITMAP
fe
40
40
40
78
40
40
40
40
40
ENDCHAR
STARTCHAR 71
ENCODING 71
SWIDTH 617 0
DWIDTH 9 0
BBX 7 10 1 0
BITMAP
7c
82
80
80
80
8e
82
82
82
7c
ENDCHAR
STARTCHAR 72
ENCODING 72
SWIDTH 617 0
DWIDTH 9 0
BBX 7 10 1 0
BITMAP
82
82
82
82
fe
82
82
82
82
82
ENDCHAR
STARTCHAR 73
ENCODING 73
SWIDTH 617 0
DWIDTH 9 0
BBX 5 10 2 0
BITMAP
f8
20
20
20
20
20
20
20
20
f8
ENDCHAR
STARTCHAR 74
ENCODING 74
SWIDTH 617 0
DWIDTH 9 0
BBX 7 10 1 0
BITMAP
1e
04
04
04
04
04
04
04
84
78
ENDCHAR
STARTCHAR 75
ENCODING 75
SWIDTH 617 0
DWIDTH 9 0
BBX 7 10 1 0
BITMAP
82
84
88
90
e0
a0
90
88
84
82
ENDCHAR
STARTCHAR 76
ENCODING 76
SWIDTH 617 0
DWIDTH 9 0
BBX 7 10 1 0
BITMAP
80
80
80
80
80
80
80
80
80
fe
ENDCHAR
STARTCHAR 77
ENCODING 77
SWIDTH 617 0
DWIDTH 9 0
BBX 7 10 1 0
BITMAP
82
82
c6
aa
aa
92
92
82
82
82
ENDCHAR
STARTCHAR 78
ENCODING 78
SWIDTH 617 0
DWIDTH 9 0
BBX 7 10 1 0
BITMAP
82
82
c2
a2
92
8a
86
82
82
82
ENDCHAR
STARTCHAR 79
ENCODING 79
SWIDTH 617 0
DWIDTH 9 0
BBX 7 10 1 0
BITMAP
7c
82
82
82
82
82
82
82
82
7c
ENDCHAR
STARTCHAR 80
ENCODING 80
SWIDTH 617 0
DWIDTH 9 0
BBX 7 10 1 0
BITMAP
fc
82
82
82
fc
80
80
80
80
80
ENDCHAR
STARTCHAR 81
ENCODING 81
SWIDTH 617 0
DWIDTH 9 0
BBX 7 11 1 -1
BITMAP
7c
82
82
82
82
82
82
92
8a
7c
02
ENDCHAR
STARTCHAR 82
ENCODING 82
SWIDTH 617 0
DWIDTH 9 0
BBX 7 10 1 0
BITMAP
fc
82
82
82
fc
90
88
84
82
82
ENDCHAR
STARTCHAR 83
ENCODING 83
SWIDTH 617 0
DWIDTH 9 0
BBX 7 10 1 0
BITMAP
7c
82
80
80
7c
02
02
02
82
7c
ENDCHAR
STARTCHAR 84
ENCODING 84
SWIDTH 617 0
DWIDTH 9 0
BBX 7 10 1 0
BITMAP
fe
10
10
10
10
10
10
10
10
10
ENDCHAR
STARTCHAR 85
ENCODING 85
SWIDTH 617 0
DWIDTH 9 0
BBX 7 10 1 0
BITMAP
82
82
82
82
82
82
82
82
82
7c
ENDCHAR
STARTCHAR 86
ENCODING 86
SWIDTH 617 0
DWIDTH 9 0
BBX 7 10 1 0
BITMAP
82
82
82
44
44
44
28
28
28
10
ENDCHAR
STARTCHAR 87
ENCODING 87
SWIDTH 617 0
DWIDTH 9 0
BBX 7 10 1 0
BITMAP
82
82
82
82
92
92
92
92
aa
44
ENDCHAR
STARTCHAR 88
ENCODING 88
SWIDTH 617 0
DWIDTH 9 0
BBX 7 10 1 0
BITMAP
82
82
44
28
10
10
28
44
82
82
ENDCHAR
STARTCHAR 89
ENCODING 89
SWIDTH 617 0
DWIDTH 9 0
BBX 7 10 1 0
BITMAP
82
82
44
28
10
10
10
10
10
10
ENDCHAR
STARTCHAR 90
ENCODING 90
SWIDTH 617 0
DWIDTH 9 0
BBX 7 10 1 0
BITMAP
fe
02
04
08
10
20
40
80
80
fe
ENDCHAR
STARTCHAR 91
ENCODING 91
SWIDTH 617 0
DWIDTH 9 0
BBX 4 10 3 0
BITMAP
f0
80
80
80
80
80
80
80
80
f0
ENDCHAR
STARTCHAR 92
ENCODING 92
SWIDTH 617 0
DWIDTH 9 0
BBX 7 10 1 0
BITMAP
80
40
40
20
10
10
08
04
04
02
ENDCHAR
STARTCHAR 93
ENCODING 93
SWIDTH 617 0
DWIDTH 9 0
BBX 4 10 2 0
BITMAP
f0
10
10
10
10
10
10
10
10
f0
ENDCHAR
STARTCHAR 94
ENCODING 94
SWIDTH 617 0
DWIDTH 9 0
BBX 7 4 1 6
BITMAP
10
28
44
82
ENDCHAR
STARTCHAR 95
ENCODING 95
SWIDTH 617 0
DWIDTH 9 0
BBX 8 1 0 -1
BITMAP
ff
ENDCHAR
STARTCHAR 96
ENCODING 96
SWIDTH 617 0
DWIDTH 9 0
BBX 4 3 2 7
BITMAP
e0
60
10
ENDCHAR
STARTCHAR 97
ENCODING 97
SWIDTH 617 0
DWIDTH 9 0
BBX 7 7 1 0
BITMAP
7c
02
02
7e
82
86
7a
ENDCHAR
STARTCHAR 98
ENCODING 98
SWIDTH 617 0
DWIDTH 9 0
BBX 7 10 1 0
BITMAP
80
80
80
bc
c2
82
82
82
c2
bc
ENDCHAR
STARTCHAR 99
ENCODING 99
SWIDTH 617 0
DWIDTH 9 0
BBX 7 7 1 0
BITMAP
7c
82
80
80
80
82
7c
ENDCHAR
STARTCHAR 100
ENCODING 100
SWIDTH 617 0
DWIDTH 9 0
BBX 7 10 1 0
BITMAP
02
02
02
7a
86
82
82
82
86
7a
ENDCHAR
STARTCHAR 101
ENCODING 101
SWIDTH 617 0
DWIDTH 9 0
BBX 7 7 1 0
BITMAP
7c
82
82
fe
80
80
7c
ENDCHAR
STARTCHAR 102
ENCODING 102
SWIDTH 617 0
DWIDTH 9 0
BBX 7 10 1 0
BITMAP
1c
22
22
20
20
f8
20
20
20
20
ENDCHAR
STARTCHAR 103
ENCODING 103
SWIDTH 617 0
DWIDTH 9 0
BBX 7 9 1 -2
BITMAP
7a
84
84
84
78
80
7c
82
7c
ENDCHAR
STARTCHAR 104
ENCODING 104
SWIDTH 617 0
DWIDTH 9 0
BBX 7 10 1 0
BITMAP
80
80
80
bc
c2
82
82
82
82
82
ENDCHAR
STARTCHAR 105
ENCODING 105
SWIDTH 617 0
DWIDTH 9 0
BBX 5 9 2 0
BITMAP
20
00
60
20
20
20
20
20
f8
ENDCHAR
STARTCHAR 106
ENCODING 106
SWIDTH 617 0
DWIDTH 9 0
BBX 6 11 1 -2
BITMAP
04
00
1c
04
04
04
04
04
84
84
78
ENDCHAR
STARTCHAR 107
ENCODING 107
SWIDTH 617 0
DWIDTH 9 0
BBX 7 10 1 0
BITMAP
80
80
80
82
8c
b0
c0
b0
8c
82
ENDCHAR
STARTCHAR 108
ENCODING 108
SWIDTH 617 0
DWIDTH 9 0
BBX 5 10 2 0
BITMAP
60
20
20
20
20
20
20
20
20
f8
ENDCHAR
STARTCHAR 109
ENCODING 109
SWIDTH 617 0
DWIDTH 9 0
BBX 7 7 1 0
BITMAP
ec
92
92
92
92
92
82
ENDCHAR
STARTCHAR 110
ENCODING 110
SWIDTH 617 0
DWIDTH 9 0
BBX 7 7 1 0
BITMAP
bc
c2
82
82
82
82
82
ENDCHAR
STARTCHAR 111
ENCODING 111
SWIDTH 617 0
DWIDTH 9 0
BBX 7 7 1 0
BITMAP
7c
82
82
82
82
82
7c
ENDCHAR
STARTCHAR 112
ENCODING 112
SWIDTH 617 0
DWIDTH 9 0
BBX 7 9 1 -2
BITMAP
bc
c2
82
82
82
c2
bc
80
80
ENDCHAR
STARTCHAR 113
ENCODING 113
SWIDTH 617 0
DWIDTH 9 0
BBX 7 9 1 -2
BITMAP
7a
86
82
82
82
86
7a
02
02
ENDCHAR
STARTCHAR 114
ENCODING 114
SWIDTH 617 0
DWIDTH 9 0
BBX 7 7 1 0
BITMAP
9c
62
40
40
40
40
40
ENDCHAR
STARTCHAR 115
ENCODING 115
SWIDTH 617 0
DWIDTH 9 0
BBX 7 7 1 0
BITMAP
7c
82
80
7c
02
82
7c
ENDCHAR
STARTCHAR 116
ENCODING 116
SWIDTH 617 0
DWIDTH 9 0
BBX 7 9 1 0
BITMAP
20
20
fc
20
20
20
20
22
1c
ENDCHAR
STARTCHAR 117
ENCODING 117
SWIDTH 617 0
DWIDTH 9 0
BBX 7 7 1 0
BITMAP
84
84
84
84
84
84
7a
ENDCHAR
STARTCHAR 118
ENCODING 118
SWIDTH 617 0
DWIDTH 9 0
BBX 7 7 1 0
BITMAP
82
82
44
44
28
28
10
ENDCHAR
STARTCHAR 119
ENCODING 119
SWIDTH 617 0
DWIDTH 9 0
BBX 7 7 1 0
BITMAP
82
82
92
92
92
aa
44
ENDCHAR
STARTCHAR 120
ENCODING 120
SWIDTH 617 0
DWIDTH 9 0
BBX 7 7 1 0
BITMAP
82
44
28
10
28
44
82
ENDCHAR
STARTCHAR 121
ENCODING 121
SWIDTH 617 0
DWIDTH 9 0
BBX 6 9 1 -2
BITMAP
84
84
84
84
84
8c
74
04
78
ENDCHAR
STARTCHAR 122
ENCODING 122
SWIDTH 617 0
DWIDTH 9 0
BBX 7 7 1 0
BITMAP
fe
04
08
10
20
40
fe
ENDCHAR
STARTCHAR 123
ENCODING 123
SWIDTH 617 0
DWIDTH 9 0
BBX 5 10 3 0
BITMAP
38
40
40
20
c0
c0
20
40
40
38
ENDCHAR
STARTCHAR 124
ENCODING 124
SWIDTH 617 0
DWIDTH 9 0
BBX 1 10 4 0
BITMAP
80
80
80
80
80
80
80
80
80
80
ENDCHAR
STARTCHAR 125
ENCODING 125
SWIDTH 617 0
DWIDTH 9 0
BBX 5 10 1 0
BITMAP
e0
10
10
20
18
18
20
10
10
e0
ENDCHAR
STARTCHAR 126
ENCODING 126
SWIDTH 617 0
DWIDTH 9 0
BBX 7 3 1 7
BITMAP
62
92
8c
ENDCHAR
STARTCHAR 127
ENCODING 127
SWIDTH 617 0
DWIDTH 9 0
BBX 1 1 0 -2
BITMAP
00
ENDCHAR
STARTCHAR 160
ENCODING 160
SWIDTH 617 0
DWIDTH 9 0
BBX 1 1 0 -2
BITMAP
00
ENDCHAR
STARTCHAR 161
ENCODING 161
SWIDTH 617 0
DWIDTH 9 0
BBX 7 12 1 -2
BITMAP
10
28
44
82
82
82
fe
82
82
86
08
06
ENDCHAR
STARTCHAR 162
ENCODING 162
SWIDTH 617 0
DWIDTH 9 0
BBX 5 3 2 9
BITMAP
88
50
20
ENDCHAR
STARTCHAR 163
ENCODING 163
SWIDTH 617 0
DWIDTH 9 0
BBX 8 10 0 0
BITMAP
40
40
50
60
c0
40
40
40
40
7f
ENDCHAR
STARTCHAR 164
ENCODING 164
SWIDTH 617 0
DWIDTH 9 0
BBX 7 6 1 3
BITMAP
82
7c
44
44
7c
82
ENDCHAR
STARTCHAR 165
ENCODING 165
SWIDTH 617 0
DWIDTH 9 0
BBX 7 11 1 0
BITMAP
0c
84
98
80
80
80
80
80
80
80
fe
ENDCHAR
STARTCHAR 166
ENCODING 166
SWIDTH 617 0
DWIDTH 9 0
BBX 7 13 1 0
BITMAP
06
18
00
7c
82
80
80
7c
02
02
02
82
7c
ENDCHAR
STARTCHAR 167
ENCODING 167
SWIDTH 617 0
DWIDTH 9 0
BBX 5 11 2 -1
BITMAP
70
88
80
70
88
88
88
70
08
88
70
ENDCHAR
STARTCHAR 168
ENCODING 168
SWIDTH 617 0
DWIDTH 9 0
BBX 4 2 2 9
BITMAP
90
90
ENDCHAR
STARTCHAR 169
ENCODING 169
SWIDTH 617 0
DWIDTH 9 0
BBX 7 13 1 0
BITMAP
28
10
00
7c
82
80
80
7c
02
02
02
82
7c
ENDCHAR
STARTCHAR 170
ENCODING 170
SWIDTH 617 0
DWIDTH 9 0
BBX 7 12 1 -2
BITMAP
7c
82
80
80
7c
02
02
02
82
7c
08
30
ENDCHAR
STARTCHAR 171
ENCODING 171
SWIDTH 617 0
DWIDTH 9 0
BBX 7 13 1 0
BITMAP
28
10
00
fe
10
10
10
10
10
10
10
10
10
ENDCHAR
STARTCHAR 172
ENCODING 172
SWIDTH 617 0
DWIDTH 9 0
BBX 7 13 1 0
BITMAP
0c
30
00
fe
02
04
08
10
20
40
80
80
fe
ENDCHAR
STARTCHAR 173
ENCODING 173
SWIDTH 617 0
DWIDTH 9 0
BBX 6 1 1 4
BITMAP
fc
ENDCHAR
STARTCHAR 174
ENCODING 174
SWIDTH 617 0
DWIDTH 9 0
BBX 7 13 1 0
BITMAP
28
10
00
fe
02
04
08
10
20
40
80
80
fe
ENDCHAR
STARTCHAR 175
ENCODING 175
SWIDTH 617 0
DWIDTH 9 0
BBX 7 12 1 0
BITMAP
18
00
fe
02
04
08
10
20
40
80
80
fe
ENDCHAR
STARTCHAR 176
ENCODING 176
SWIDTH 617 0
DWIDTH 9 0
BBX 4 4 3 7
BITMAP
60
90
90
60
ENDCHAR
STARTCHAR 177
ENCODING 177
SWIDTH 617 0
DWIDTH 9 0
BBX 7 9 1 -2
BITMAP
7c
02
02
7e
82
86
7a
04
06
ENDCHAR
STARTCHAR 178
ENCODING 178
SWIDTH 617 0
DWIDTH 9 0
BBX 3 3 5 -2
BITMAP
40
80
e0
ENDCHAR
STARTCHAR 179
ENCODING 179
SWIDTH 617 0
DWIDTH 9 0
BBX 5 10 2 0
BITMAP
60
20
20
28
30
60
a0
20
20
f8
ENDCHAR
STARTCHAR 180
ENCODING 180
SWIDTH 617 0
DWIDTH 9 0
BBX 4 2 3 9
BITMAP
30
c0
ENDCHAR
STARTCHAR 181
ENCODING 181
SWIDTH 617 0
DWIDTH 9 0
BBX 6 11 2 0
BITMAP
0c
64
28
20
20
20
20
20
20
20
f8
ENDCHAR
STARTCHAR 182
ENCODING 182
SWIDTH 617 0
DWIDTH 9 0
BBX 7 10 1 0
BITMAP
06
18
00
7c
82
80
7c
02
82
7c
ENDCHAR
STARTCHAR 183
ENCODING 183
SWIDTH 617 0
DWIDTH 9 0
BBX 1 1 0 -2
BITMAP
00
ENDCHAR
STARTCHAR 184
ENCODING 184
SWIDTH 617 0
DWIDTH 9 0
BBX 4 3 2 -2
BITMAP
30
10
f0
ENDCHAR
STARTCHAR 185
ENCODING 185
SWIDTH 617 0
DWIDTH 9 0
BBX 7 10 1 0
BITMAP
28
10
00
7c
82
80
7c
02
82
7c
ENDCHAR
STARTCHAR 186
ENCODING 186
SWIDTH 617 0
DWIDTH 9 0
BBX 7 9 1 -2
BITMAP
7c
82
80
7c
02
82
7c
08
30
ENDCHAR
STARTCHAR 187
ENCODING 187
SWIDTH 617 0
DWIDTH 9 0
BBX 7 11 1 0
BITMAP
0c
04
28
20
fc
20
20
20
20
22
1c
ENDCHAR
STARTCHAR 188
ENCODING 188
SWIDTH 617 0
DWIDTH 9 0
BBX 7 10 1 0
BITMAP
0c
30
00
fe
04
08
10
20
40
fe
ENDCHAR
STARTCHAR 189
ENCODING 189
SWIDTH 617 0
DWIDTH 9 0
BBX 6 3 2 7
BITMAP
24
48
90
ENDCHAR
STARTCHAR 190
ENCODING 190
SWIDTH 617 0
DWIDTH 9 0
BBX 7 10 1 0
BITMAP
28
10
00
fe
04
08
10
20
40
fe
ENDCHAR
STARTCHAR 191
ENCODING 191
SWIDTH 617 0
DWIDTH 9 0
BBX 7 10 1 0
BITMAP
18
00
00
fe
04
08
10
20
40
fe
ENDCHAR
STARTCHAR 192
ENCODING 192
SWIDTH 617 0
DWIDTH 9 0
BBX 7 13 1 0
BITMAP
0c
30
00
fc
82
82
82
fc
90
88
84
82
82
ENDCHAR
STARTCHAR 193
ENCODING 193
SWIDTH 617 0
DWIDTH 9 0
BBX 7 13 1 0
BITMAP
06
18
00
10
28
44
82
82
82
fe
82
82
82
ENDCHAR
STARTCHAR 194
ENCODING 194
SWIDTH 617 0
DWIDTH 9 0
BBX 7 13 1 0
BITMAP
38
44
00
10
28
44
82
82
82
fe
82
82
82
ENDCHAR
STARTCHAR 195
ENCODING 195
SWIDTH 617 0
DWIDTH 9 0
BBX 7 13 1 0
BITMAP
44
38
00
10
28
44
82
82
82
fe
82
82
82
ENDCHAR
STARTCHAR 196
ENCODING 196
SWIDTH 617 0
DWIDTH 9 0
BBX 7 13 1 0
BITMAP
44
44
00
10
28
44
82
82
82
fe
82
82
82
ENDCHAR
STARTCHAR 197
ENCODING 197
SWIDTH 617 0
DWIDTH 9 0
BBX 7 13 1 0
BITMAP
18
60
00
80
80
80
80
80
80
80
80
80
fe
ENDCHAR
STARTCHAR 198
ENCODING 198
SWIDTH 617 0
DWIDTH 9 0
BBX 7 13 1 0
BITMAP
0c
30
00
7c
82
80
80
80
80
80
80
82
7c
ENDCHAR
STARTCHAR 199
ENCODING 199
SWIDTH 617 0
DWIDTH 9 0
BBX 7 12 1 -2
BITMAP
7c
82
80
80
80
80
80
80
82
7c
04
1c
ENDCHAR
STARTCHAR 200
ENCODING 200
SWIDTH 617 0
DWIDTH 9 0
BBX 7 13 1 0
BITMAP
28
10
00
7c
82
80
80
80
80
80
80
82
7c
ENDCHAR
STARTCHAR 201
ENCODING 201
SWIDTH 617 0
DWIDTH 9 0
BBX 7 13 1 0
BITMAP
06
18
00
fe
40
40
40
78
40
40
40
40
fe
ENDCHAR
STARTCHAR 202
ENCODING 202
SWIDTH 617 0
DWIDTH 9 0
BBX 7 12 1 -2
BITMAP
fe
40
40
40
78
40
40
40
40
fe
08
06
ENDCHAR
STARTCHAR 203
ENCODING 203
SWIDTH 617 0
DWIDTH 9 0
BBX 7 13 1 0
BITMAP
24
24
00
fe
40
40
40
78
40
40
40
40
fe
ENDCHAR
STARTCHAR 204
ENCODING 204
SWIDTH 617 0
DWIDTH 9 0
BBX 7 13 1 0
BITMAP
28
10
00
fe
40
40
40
78
40
40
40
40
fe
ENDCHAR
STARTCHAR 205
ENCODING 205
SWIDTH 617 0
DWIDTH 9 0
BBX 6 13 2 0
BITMAP
0c
30
00
f8
20
20
20
20
20
20
20
20
f8
ENDCHAR
STARTCHAR 206
ENCODING 206
SWIDTH 617 0
DWIDTH 9 0
BBX 5 13 2 0
BITMAP
70
88
00
f8
20
20
20
20
20
20
20
20
f8
ENDCHAR
STARTCHAR 207
ENCODING 207
SWIDTH 617 0
DWIDTH 9 0
BBX 7 13 1 0
BITMAP
28
10
00
fc
42
42
42
42
42
42
42
42
fc
ENDCHAR
STARTCHAR 208
ENCODING 208
SWIDTH 617 0
DWIDTH 9 0
BBX 8 10 0 0
BITMAP
7e
21
21
21
21
f9
21
21
21
7e
ENDCHAR
STARTCHAR 209
ENCODING 209
SWIDTH 617 0
DWIDTH 9 0
BBX 7 13 1 0
BITMAP
0c
30
00
82
82
c2
a2
92
8a
86
82
82
82
ENDCHAR
STARTCHAR 210
ENCODING 210
SWIDTH 617 0
DWIDTH 9 0
BBX 7 13 1 0
BITMAP
28
10
00
82
82
c2
a2
92
8a
86
82
82
82
ENDCHAR
STARTCHAR 211
ENCODING 211
SWIDTH 617 0
DWIDTH 9 0
BBX 7 13 1 0
BITMAP
06
18
00
7c
82
82
82
82
82
82
82
82
7c
ENDCHAR
STARTCHAR 212
ENCODING 212
SWIDTH 617 0
DWIDTH 9 0
BBX 7 13 1 0
BITMAP
38
44
00
7c
82
82
82
82
82
82
82
82
7c
ENDCHAR
STARTCHAR 213
ENCODING 213
SWIDTH 617 0
DWIDTH 9 0
BBX 7 13 1 0
BITMAP
22
44
00
7c
82
82
82
82
82
82
82
82
7c
ENDCHAR
STARTCHAR 214
ENCODING 214
SWIDTH 617 0
DWIDTH 9 0
BBX 7 13 1 0
BITMAP
44
44
00
7c
82
82
82
82
82
82
82
82
7c
ENDCHAR
STARTCHAR 215
ENCODING 215
SWIDTH 617 0
DWIDTH 9 0
BBX 7 7 1 1
BITMAP
82
44
28
10
28
44
82
ENDCHAR
STARTCHAR 216
ENCODING 216
SWIDTH 617 0
DWIDTH 9 0
BBX 7 13 1 0
BITMAP
28
10
00
fc
82
82
82
fc
90
88
84
82
82
ENDCHAR
STARTCHAR 217
ENCODING 217
SWIDTH 617 0
DWIDTH 9 0
BBX 7 13 1 0
BITMAP
10
28
10
82
82
82
82
82
82
82
82
82
7c
ENDCHAR
STARTCHAR 218
ENCODING 218
SWIDTH 617 0
DWIDTH 9 0
BBX 7 13 1 0
BITMAP
0c
30
00
82
82
82
82
82
82
82
82
82
7c
ENDCHAR
STARTCHAR 219
ENCODING 219
SWIDTH 617 0
DWIDTH 9 0
BBX 7 13 1 0
BITMAP
22
44
00
82
82
82
82
82
82
82
82
82
7c
ENDCHAR
STARTCHAR 220
ENCODING 220
SWIDTH 617 0
DWIDTH 9 0
BBX 7 13 1 0
BITMAP
44
44
00
82
82
82
82
82
82
82
82
82
7c
ENDCHAR
STARTCHAR 221
ENCODING 221
SWIDTH 617 0
DWIDTH 9 0
BBX 7 13 1 0
BITMAP
06
18
00
82
82
44
28
10
10
10
10
10
10
ENDCHAR
STARTCHAR 222
ENCODING 222
SWIDTH 617 0
DWIDTH 9 0
BBX 7 12 1 -2
BITMAP
fe
10
10
10
10
10
10
10
10
10
08
30
ENDCHAR
STARTCHAR 223
ENCODING 223
SWIDTH 617 0
DWIDTH 9 0
BBX 8 9 0 -1
BITMAP
3e
41
41
ce
41
41
41
5e
80
ENDCHAR
STARTCHAR 224
ENCODING 224
SWIDTH 617 0
DWIDTH 9 0
BBX 7 10 1 0
BITMAP
06
18
00
9c
62
40
40
40
40
40
ENDCHAR
STARTCHAR 225
ENCODING 225
SWIDTH 617 0
DWIDTH 9 0
BBX 7 10 1 0
BITMAP
06
18
00
7c
02
02
7e
82
86
7a
ENDCHAR
STARTCHAR 226
ENCODING 226
SWIDTH 617 0
DWIDTH 9 0
BBX 7 10 1 0
BITMAP
38
44
00
7c
02
02
7e
82
86
7a
ENDCHAR
STARTCHAR 227
ENCODING 227
SWIDTH 617 0
DWIDTH 9 0
BBX 7 10 1 0
BITMAP
44
38
00
7c
02
02
7e
82
86
7a
ENDCHAR
STARTCHAR 228
ENCODING 228
SWIDTH 617 0
DWIDTH 9 0
BBX 7 11 1 0
BITMAP
44
44
00
00
7c
02
02
7e
82
86
7a
ENDCHAR
STARTCHAR 229
ENCODING 229
SWIDTH 617 0
DWIDTH 9 0
BBX 6 13 2 0
BITMAP
0c
30
00
60
20
20
20
20
20
20
20
20
f8
ENDCHAR
STARTCHAR 230
ENCODING 230
SWIDTH 617 0
DWIDTH 9 0
BBX 7 10 1 0
BITMAP
06
18
00
7c
82
80
80
80
82
7c
ENDCHAR
STARTCHAR 231
ENCODING 231
SWIDTH 617 0
DWIDTH 9 0
BBX 7 9 1 -2
BITMAP
7c
82
80
80
80
82
7c
04
18
ENDCHAR
STARTCHAR 232
ENCODING 232
SWIDTH 617 0
DWIDTH 9 0
BBX 7 10 1 0
BITMAP
28
10
00
7c
82
80
80
80
82
7c
ENDCHAR
STARTCHAR 233
ENCODING 233
SWIDTH 617 0
DWIDTH 9 0
BBX 7 10 1 0
BITMAP
06
18
00
7c
82
82
fe
80
80
7c
ENDCHAR
STARTCHAR 234
ENCODING 234
SWIDTH 617 0
DWIDTH 9 0
BBX 7 9 1 -2
BITMAP
7c
82
82
fe
80
80
7c
10
0c
ENDCHAR
STARTCHAR 235
ENCODING 235
SWIDTH 617 0
DWIDTH 9 0
BBX 7 10 1 0
BITMAP
44
44
00
7c
82
82
fe
80
80
7c
ENDCHAR
STARTCHAR 236
ENCODING 236
SWIDTH 617 0
DWIDTH 9 0
BBX 7 10 1 0
BITMAP
28
10
00
7c
82
82
fe
80
80
7c
ENDCHAR
STARTCHAR 237
ENCODING 237
SWIDTH 617 0
DWIDTH 9 0
BBX 5 10 2 0
BITMAP
18
60
00
60
20
20
20
20
20
f8
ENDCHAR
STARTCHAR 238
ENCODING 238
SWIDTH 617 0
DWIDTH 9 0
BBX 5 10 2 0
BITMAP
60
90
00
60
20
20
20
20
20
f8
ENDCHAR
STARTCHAR 239
ENCODING 239
SWIDTH 617 0
DWIDTH 9 0
BBX 8 12 1 0
BITMAP
03
01
06
04
04
74
8c
84
84
84
8c
74
ENDCHAR
STARTCHAR 240
ENCODING 240
SWIDTH 617 0
DWIDTH 9 0
BBX 8 10 1 0
BITMAP
02
0f
02
7a
86
82
82
82
86
7a
ENDCHAR
STARTCHAR 241
ENCODING 241
SWIDTH 617 0
DWIDTH 9 0
BBX 7 10 1 0
BITMAP
0c
30
00
bc
c2
82
82
82
82
82
ENDCHAR
STARTCHAR 242
ENCODING 242
SWIDTH 617 0
DWIDTH 9 0
BBX 7 10 1 0
BITMAP
28
10
00
bc
c2
82
82
82
82
82
ENDCHAR
STARTCHAR 243
ENCODING 243
SWIDTH 617 0
DWIDTH 9 0
BBX 7 10 1 0
BITMAP
06
18
00
7c
82
82
82
82
82
7c
ENDCHAR
STARTCHAR 244
ENCODING 244
SWIDTH 617 0
DWIDTH 9 0
BBX 7 10 1 0
BITMAP
38
44
00
7c
82
82
82
82
82
7c
ENDCHAR
STARTCHAR 245
ENCODING 245
SWIDTH 617 0
DWIDTH 9 0
BBX 7 10 1 0
BITMAP
12
24
00
7c
82
82
82
82
82
7c
ENDCHAR
STARTCHAR 246
ENCODING 246
SWIDTH 617 0
DWIDTH 9 0
BBX 7 11 1 0
BITMAP
44
44
00
00
7c
82
82
82
82
82
7c
ENDCHAR
STARTCHAR 247
ENCODING 247
SWIDTH 617 0
DWIDTH 9 0
BBX 7 10 1 0
BITMAP
02
04
04
08
10
10
20
40
40
80
ENDCHAR
STARTCHAR 248
ENCODING 248
SWIDTH 617 0
DWIDTH 9 0
BBX 7 10 1 0
BITMAP
28
10
00
9c
62
40
40
40
40
40
ENDCHAR
STARTCHAR 249
ENCODING 249
SWIDTH 617 0
DWIDTH 9 0
BBX 7 11 1 0
BITMAP
10
28
10
00
84
84
84
84
84
84
7a
ENDCHAR
STARTCHAR 250
ENCODING 250
SWIDTH 617 0
DWIDTH 9 0
BBX 7 10 1 0
BITMAP
0c
30
00
84
84
84
84
84
84
7a
ENDCHAR
STARTCHAR 251
ENCODING 251
SWIDTH 617 0
DWIDTH 9 0
BBX 7 10 1 0
BITMAP
22
44
00
84
84
84
84
84
84
7a
ENDCHAR
STARTCHAR 252
ENCODING 252
SWIDTH 617 0
DWIDTH 9 0
BBX 7 11 1 0
BITMAP
44
44
00
00
84
84
84
84
84
84
7a
ENDCHAR
STARTCHAR 253
ENCODING 253
SWIDTH 617 0
DWIDTH 9 0
BBX 6 12 1 -2
BITMAP
0c
30
00
84
84
84
84
84
8c
74
04
78
ENDCHAR
STARTCHAR 254
ENCODING 254
SWIDTH 617 0
DWIDTH 9 0
BBX 7 11 1 -2
BITMAP
20
20
fc
20
20
20
20
22
1c
08
30
ENDCHAR
STARTCHAR 255
ENCODING 255
SWIDTH 617 0
DWIDTH 9 0
BBX 2 2 3 9
BITMAP
c0
c0
ENDCHAR
ENDFONT
